<svg height='300px' width='300px'  fill="#1A1A1A" xmlns="http://www.w3.org/2000/svg" xmlns:xlink="http://www.w3.org/1999/xlink" version="1.1" x="0px" y="0px" viewBox="0 0 100 100" enable-background="new 0 0 100 100" xml:space="preserve"><g><polygon points="44.626,39.826 42.626,39.826 42.626,41.492 41.833,41.492 41.833,43.492 42.626,43.492 42.626,48.91 44.626,48.91    44.626,43.492 45.419,43.492 45.419,41.492 44.626,41.492  "></polygon><polygon points="48.876,39.826 46.876,39.826 46.876,44.41 46.083,44.41 46.083,46.41 46.876,46.41 46.876,48.91 48.876,48.91    48.876,46.41 49.669,46.41 49.669,44.41 48.876,44.41  "></polygon><polygon points="51.126,48.91 53.126,48.91 53.126,43.492 53.919,43.492 53.919,41.492 53.126,41.492 53.126,39.826 51.126,39.826    51.126,41.492 50.333,41.492 50.333,43.492 51.126,43.492  "></polygon><polygon points="57.376,39.826 55.376,39.826 55.376,44.41 54.583,44.41 54.583,46.41 55.376,46.41 55.376,48.91 57.376,48.91    57.376,46.41 58.169,46.41 58.169,44.41 57.376,44.41  "></polygon><path d="M60.432,22.212H39.569c-1.784,0-3.235,1.501-3.235,3.346v48.883c0,1.846,1.451,3.347,3.235,3.347h20.862   c1.784,0,3.235-1.501,3.235-3.347V25.558C63.667,23.713,62.216,22.212,60.432,22.212z M61.667,74.441   c0,0.742-0.554,1.347-1.235,1.347H39.569c-0.682,0-1.235-0.604-1.235-1.347V25.558c0-0.742,0.554-1.346,1.235-1.346h20.862   c0.682,0,1.235,0.604,1.235,1.346V74.441z"></path><path d="M49.157,31.326c0-2.539-2.065-4.604-4.604-4.604s-4.604,2.065-4.604,4.604s2.065,4.604,4.604,4.604   S49.157,33.864,49.157,31.326z M41.948,31.326c0-1.436,1.168-2.604,2.604-2.604c1.266,0,2.32,0.907,2.554,2.104h-2.034v1h2.034   c-0.234,1.197-1.289,2.104-2.554,2.104C43.116,33.93,41.948,32.762,41.948,31.326z"></path><path d="M55.584,26.722c-2.539,0-4.605,2.065-4.605,4.604s2.066,4.604,4.605,4.604s4.604-2.065,4.604-4.604   S58.123,26.722,55.584,26.722z M55.584,33.93c-1.437,0-2.605-1.168-2.605-2.604c0-1.265,0.907-2.319,2.105-2.553v2.035h1v-2.035   c1.197,0.234,2.104,1.289,2.104,2.553C58.188,32.762,57.021,33.93,55.584,33.93z"></path><rect x="64.438" y="30.391" width="2" height="6.837"></rect><rect x="33.563" y="30.391" width="2" height="6.837"></rect><circle cx="50.001" cy="55.288" r="1.25"></circle><circle cx="50.001" cy="66.621" r="4.167"></circle></g></svg>