<?xml version="1.0" encoding="UTF-8" standalone="no"?>
<svg
   xmlns:dc="http://purl.org/dc/elements/1.1/"
   xmlns:cc="http://creativecommons.org/ns#"
   xmlns:rdf="http://www.w3.org/1999/02/22-rdf-syntax-ns#"
   xmlns:svg="http://www.w3.org/2000/svg"
   xmlns="http://www.w3.org/2000/svg"
   xmlns:sodipodi="http://sodipodi.sourceforge.net/DTD/sodipodi-0.dtd"
   xmlns:inkscape="http://www.inkscape.org/namespaces/inkscape"
   height="300px"
   width="300px"
   fill="#1A1A1A"
   version="1.1"
   x="0px"
   y="0px"
   viewBox="0 0 100 100"
   enable-background="new 0 0 100 100"
   xml:space="preserve"
   id="svg26"
   sodipodi:docname="generic-di.svg"
   inkscape:version="0.92.3 (2405546, 2018-03-11)"><metadata
     id="metadata32"><rdf:RDF><cc:Work
         rdf:about=""><dc:format>image/svg+xml</dc:format><dc:type
           rdf:resource="http://purl.org/dc/dcmitype/StillImage" /></cc:Work></rdf:RDF></metadata><defs
     id="defs30" /><sodipodi:namedview
     pagecolor="#ffffff"
     bordercolor="#666666"
     borderopacity="1"
     objecttolerance="10"
     gridtolerance="10"
     guidetolerance="10"
     inkscape:pageopacity="0"
     inkscape:pageshadow="2"
     inkscape:window-width="1920"
     inkscape:window-height="1028"
     id="namedview28"
     showgrid="false"
     inkscape:zoom="0.78666667"
     inkscape:cx="-80.084746"
     inkscape:cy="150"
     inkscape:window-x="0"
     inkscape:window-y="0"
     inkscape:window-maximized="1"
     inkscape:current-layer="svg26" /><g
     id="g24"
     transform="matrix(1.7853042,0,0,1.7853042,-39.266106,-39.26521)"><polygon
       points="44.626,43.492 45.419,43.492 45.419,41.492 44.626,41.492 44.626,39.826 42.626,39.826 42.626,41.492 41.833,41.492 41.833,43.492 42.626,43.492 42.626,48.91 44.626,48.91 "
       id="polygon2" /><polygon
       points="48.876,46.41 49.669,46.41 49.669,44.41 48.876,44.41 48.876,39.826 46.876,39.826 46.876,44.41 46.083,44.41 46.083,46.41 46.876,46.41 46.876,48.91 48.876,48.91 "
       id="polygon4" /><polygon
       points="51.126,41.492 50.333,41.492 50.333,43.492 51.126,43.492 51.126,48.91 53.126,48.91 53.126,43.492 53.919,43.492 53.919,41.492 53.126,41.492 53.126,39.826 51.126,39.826 "
       id="polygon6" /><polygon
       points="57.376,46.41 58.169,46.41 58.169,44.41 57.376,44.41 57.376,39.826 55.376,39.826 55.376,44.41 54.583,44.41 54.583,46.41 55.376,46.41 55.376,48.91 57.376,48.91 "
       id="polygon8" /><path
       d="M 60.432,22.212 H 39.569 c -1.784,0 -3.235,1.501 -3.235,3.346 v 48.883 c 0,1.846 1.451,3.347 3.235,3.347 h 20.862 c 1.784,0 3.235,-1.501 3.235,-3.347 V 25.558 c 0.001,-1.845 -1.45,-3.346 -3.234,-3.346 z m 1.235,52.229 c 0,0.742 -0.554,1.347 -1.235,1.347 H 39.569 c -0.682,0 -1.235,-0.604 -1.235,-1.347 V 25.558 c 0,-0.742 0.554,-1.346 1.235,-1.346 h 20.862 c 0.682,0 1.235,0.604 1.235,1.346 v 48.883 z"
       id="path10"
       inkscape:connector-curvature="0" /><path
       d="m 49.157,31.326 c 0,-2.539 -2.065,-4.604 -4.604,-4.604 -2.539,0 -4.604,2.065 -4.604,4.604 0,2.539 2.065,4.604 4.604,4.604 2.539,0 4.604,-2.066 4.604,-4.604 z m -7.209,0 c 0,-1.436 1.168,-2.604 2.604,-2.604 1.266,0 2.32,0.907 2.554,2.104 h -2.034 v 1 h 2.034 c -0.234,1.197 -1.289,2.104 -2.554,2.104 -1.436,0 -2.604,-1.168 -2.604,-2.604 z"
       id="path12"
       inkscape:connector-curvature="0" /><path
       d="m 55.584,26.722 c -2.539,0 -4.605,2.065 -4.605,4.604 0,2.539 2.066,4.604 4.605,4.604 2.539,0 4.604,-2.065 4.604,-4.604 0,-2.539 -2.065,-4.604 -4.604,-4.604 z m 0,7.208 c -1.437,0 -2.605,-1.168 -2.605,-2.604 0,-1.265 0.907,-2.319 2.105,-2.553 v 2.035 h 1 v -2.035 c 1.197,0.234 2.104,1.289 2.104,2.553 0,1.436 -1.167,2.604 -2.604,2.604 z"
       id="path14"
       inkscape:connector-curvature="0" /><rect
       x="64.438004"
       y="30.391001"
       width="2"
       height="6.8369999"
       id="rect16" /><rect
       x="33.563"
       y="30.391001"
       width="2"
       height="6.8369999"
       id="rect18" /><circle
       cx="50.000999"
       cy="55.287998"
       r="1.25"
       id="circle20" /><circle
       cx="50.000999"
       cy="66.621002"
       r="4.1669998"
       id="circle22" /></g></svg>